<svg id="Layer_1" data-name="Layer 1" xmlns="http://www.w3.org/2000/svg" viewBox="0 0 141.1 29.09"><defs><style>.cls-1{fill:#1d983a;}.cls-2{fill:#3883c5;}.cls-3{fill:#644498;}.cls-4{fill:#d1211a;}.cls-5{fill:#f5b331;}</style></defs><path class="cls-1" d="M174.49,241.75a14,14,0,0,1-14.05-14.08,13.66,13.66,0,0,1,4.11-10,13.49,13.49,0,0,1,9.94-4.14v3a11.09,11.09,0,0,0,0,22.18Z" transform="translate(-160.44 -213.2)"/><path class="cls-2" d="M203.71,227.67a14.08,14.08,0,1,1-4.13-9.91A13.48,13.48,0,0,1,203.71,227.67Zm-3,0a10.7,10.7,0,0,0-3.24-7.83,11.06,11.06,0,1,0,3.24,7.83Z" transform="translate(-160.44 -213.2)"/><path class="cls-3" d="M218.94,227.67a14.07,14.07,0,1,1-4.12-9.91A13.47,13.47,0,0,1,218.94,227.67Zm-3,0a10.73,10.73,0,0,0-3.23-7.83,11.08,11.08,0,1,0,3.23,7.83Z" transform="translate(-160.44 -213.2)"/><path class="cls-1" d="M242.2,242.29q-4.24,0-9.56-4.42a10,10,0,0,0-5.29-2.34v6.22h-3V235.6a7.67,7.67,0,0,0-2.67,1.11l-1.62-2.48a10,10,0,0,1,4.29-1.62v-19h3V232.4c2.41-.78,4.56-3,6.45-6.78a27.21,27.21,0,0,0,2.9-12.07h3a30.39,30.39,0,0,1-2.48,11.78,20.29,20.29,0,0,1-6,8.25,13.16,13.16,0,0,1,3.3,2c3,2.49,5.58,3.74,7.67,3.74Z" transform="translate(-160.44 -213.2)"/><path class="cls-1" d="M259.58,216.54h-6.11v25.21h-3V216.54h-6.12v-3h15.22Z" transform="translate(-160.44 -213.2)"/><path class="cls-4" d="M276.55,241.75h-3V220.69a4.28,4.28,0,0,0-1.3-3.11,4.22,4.22,0,0,0-3.13-1.32,4.49,4.49,0,0,0-4.46,4.43v21.06h-2.95V220.69a7.4,7.4,0,1,1,14.8,0Zm-4-6.7a3.37,3.37,0,0,1-1,2.45,3.36,3.36,0,0,1-4.82,0,3.37,3.37,0,0,1-1-2.45,3.32,3.32,0,0,1,1-2.41,3.4,3.4,0,0,1,4.82,0A3.32,3.32,0,0,1,272.54,235.05Z" transform="translate(-160.44 -213.2)"/><path class="cls-5" d="M287.8,217.74a4.45,4.45,0,0,1-.86,2.66,4.52,4.52,0,0,1-2.24,1.66v19.69h-2.95V222.06a4.49,4.49,0,0,1-3.06-4.32,4.56,4.56,0,0,1,4.54-4.54,4.45,4.45,0,0,1,3.22,1.33A4.34,4.34,0,0,1,287.8,217.74Zm-3,0a1.55,1.55,0,0,0-.47-1.1,1.54,1.54,0,0,0-2.23,0,1.55,1.55,0,0,0-.47,1.1,1.52,1.52,0,0,0,.47,1.11,1.56,1.56,0,0,0,2.23,0A1.52,1.52,0,0,0,284.81,217.74Z" transform="translate(-160.44 -213.2)"/><path class="cls-1" d="M301.54,241.75H290v-28.2h3v25.21h8.59Z" transform="translate(-160.44 -213.2)"/></svg>